<svg width="71" height="200" viewBox="0 0 71 200" fill="none" xmlns="http://www.w3.org/2000/svg"><path d="M58.613 181.795a3.023 3.023 0 01-.69-1.539c-.08-.549-.163-1.097-.244-1.646-.25 4.536-.693 8.936-1.323 13.219a305.514 305.514 0 007.791-10.456l-4.123 1.442c-.55.192-1.067-.321-1.41-1.02zM25.09 73.808c4.305 13.38 12.374 8.858 12.861-.276.313-5.879-1.339-13.248-3.156-19.527-7.601-2.13-14.174 5.91-9.705 19.803zm27.698 122.784c2.092-10.381 2.955-21.518 2.615-33.575-.057-2.083 2.1-1.337 2.422.826.568 3.845 1.138 7.687 1.707 11.53 5.396-14.332 5.758-33.411 3.137-53.286-2.697-20.464-8.314-52.33-22.924-65.26a14.565 14.565 0 00-2.328-1.69c2.5 8.969 4.306 19.28 1.903 25.93-1.964 5.438-7 7.595-11.79 2.122-12.362-14.12-4.582-36.162 5.9-33.578C26.557 29.032 14.13 11.783.84 2.841-.079 2.22-.112.151.85.684c14.49 8.052 28.09 27.543 35.197 49.898 14.978 7.06 22.734 37.232 26.57 56.994 5 25.736 6.138 51.811-.812 70.408l6.423-2.247c.98-.343 2.432 2.25 1.682 3.348a314.354 314.354 0 01-15.06 20.331c-.813 1.008-2.365-1.328-2.062-2.825z" fill="#8DD9E5"/><path d="M58.613 181.795a3.023 3.023 0 01-.69-1.539c-.08-.549-.163-1.097-.244-1.646-.25 4.536-.693 8.936-1.323 13.219a305.514 305.514 0 007.791-10.456l-4.123 1.442c-.55.192-1.067-.321-1.41-1.02zM25.09 73.808c4.305 13.38 12.374 8.858 12.861-.276.313-5.879-1.339-13.248-3.156-19.527-7.601-2.13-14.174 5.91-9.705 19.803zm27.698 122.784c2.092-10.381 2.955-21.518 2.615-33.575-.057-2.083 2.1-1.337 2.422.826.568 3.845 1.138 7.687 1.707 11.53 5.396-14.332 5.758-33.411 3.137-53.286-2.697-20.464-8.314-52.33-22.924-65.26a14.565 14.565 0 00-2.328-1.69c2.5 8.969 4.306 19.28 1.903 25.93-1.964 5.438-7 7.595-11.79 2.122-12.362-14.12-4.582-36.162 5.9-33.578C26.557 29.032 14.13 11.783.84 2.841-.079 2.22-.112.151.85.684c14.49 8.052 28.09 27.543 35.197 49.898 14.978 7.06 22.734 37.232 26.57 56.994 5 25.736 6.138 51.811-.812 70.408l6.423-2.247c.98-.343 2.432 2.25 1.682 3.348a314.354 314.354 0 01-15.06 20.331c-.813 1.008-2.365-1.328-2.062-2.825z" fill="#5879E8"/></svg>