<svg width="182" height="61" viewBox="0 0 182 61" fill="none" xmlns="http://www.w3.org/2000/svg"><path d="M13.884 44.708c.403.308.931.447 1.482.282.484-.144.967-.287 1.45-.432A113.755 113.755 0 006.07 52.915a574.627 574.627 0 016.661-16.642c-.03 2.276-.058 4.553-.087 6.83-.012.91.56 1.432 1.241 1.605zm99.891-2.325c-12.419.063-10.819-14.126-3.276-19.265 4.854-3.306 11.498-4.411 17.27-4.743 3.862 10.279-1.101 23.94-13.994 24.008zM3.04 60.526c8.152-8.13 17.276-14.796 27.5-20.118 1.767-.922.552-3.77-1.354-3.203-3.386 1.013-6.77 2.022-10.154 3.032 10.571-14.953 26.506-24.713 43.922-30.42 17.932-5.88 46.242-12.926 61.093 2.558a16.71 16.71 0 012.056 2.645c-8.219.617-17.377 2.915-22.31 9.703-4.034 5.55-4.473 14.084 1.432 18.564 15.237 11.565 31.639-10.662 26.609-25.005 19.167.273 37.052 10.423 48.191 25.869.771 1.069 2.519.12 1.809-1.053-10.719-17.663-30.807-28.472-51.531-28.24C120.285-4.009 92.815-.963 75.162 2.881c-22.99 5.002-45.213 15.913-58.946 35.24.046-3.547.09-7.094.137-10.641.021-1.624-2.554-2.53-3.273-.884A589.33 589.33 0 00.103 58.826c-.625 1.695 1.76 2.875 2.937 1.701z" fill="#8DD9E5"/><path d="M13.884 44.708c.403.308.931.447 1.482.282.484-.144.967-.287 1.45-.432A113.755 113.755 0 006.07 52.915a574.627 574.627 0 016.661-16.642c-.03 2.276-.058 4.553-.087 6.83-.012.91.56 1.432 1.241 1.605zm99.891-2.325c-12.419.063-10.819-14.126-3.276-19.265 4.854-3.306 11.498-4.411 17.27-4.743 3.862 10.279-1.101 23.94-13.994 24.008zM3.04 60.526c8.152-8.13 17.276-14.796 27.5-20.118 1.767-.922.552-3.77-1.354-3.203-3.386 1.013-6.77 2.022-10.154 3.032 10.571-14.953 26.506-24.713 43.922-30.42 17.932-5.88 46.242-12.926 61.093 2.558a16.71 16.71 0 012.056 2.645c-8.219.617-17.377 2.915-22.31 9.703-4.034 5.55-4.473 14.084 1.432 18.564 15.237 11.565 31.639-10.662 26.609-25.005 19.167.273 37.052 10.423 48.191 25.869.771 1.069 2.519.12 1.809-1.053-10.719-17.663-30.807-28.472-51.531-28.24C120.285-4.009 92.815-.963 75.162 2.881c-22.99 5.002-45.213 15.913-58.946 35.24.046-3.547.09-7.094.137-10.641.021-1.624-2.554-2.53-3.273-.884A589.33 589.33 0 00.103 58.826c-.625 1.695 1.76 2.875 2.937 1.701z" fill="#5879E8"/></svg>