<svg width="106" height="106" viewBox="0 0 106 106" fill="none" xmlns="http://www.w3.org/2000/svg">
<path d="M92.5397 67.0782H86.4148C87.0531 66.4571 87.5473 66.0672 87.6891 65.9293C88.4108 65.2173 89.0913 64.4647 89.7273 63.6752C93.5297 59.0641 95.6214 53.2805 95.6484 47.304V43.9321C95.9964 43.9854 96.3477 44.0141 96.6997 44.0178C97.4176 44.0237 98.1302 43.8949 98.8005 43.6379C99.6678 43.2902 100.424 42.7134 100.989 41.9691C101.554 41.2247 101.906 40.3409 102.007 39.412C102.108 38.4832 101.955 37.5442 101.564 36.6956C101.173 35.847 100.559 35.1206 99.7872 34.5941C98.5568 33.7434 97.0977 33.59 95.6484 34.085V20.628C95.6529 18.7274 94.9721 16.8889 93.7308 15.4496C92.4896 14.0103 90.7711 13.0666 88.8905 12.7917C88.8015 12.7794 88.5711 12.7449 84.3772 12.771C84.4186 11.5921 84.4234 10.4491 84.2754 9.95658C83.7786 8.33691 82.7765 6.91872 81.4158 5.9095C80.0551 4.90027 78.4071 4.35298 76.7129 4.34768H49.1018C48.772 4.33939 48.4523 4.46218 48.2128 4.68916C47.9733 4.91614 47.8336 5.22879 47.8242 5.55861V14.2632C47.8355 15.8671 48.3107 17.4334 49.1923 18.7732C50.074 20.113 51.3245 21.1691 52.793 21.8141V34.0726C51.3437 33.5933 49.9196 33.7503 48.6998 34.5935C48.1113 34.9972 47.6134 35.519 47.2377 36.1256C46.862 36.7323 46.6167 37.4105 46.5174 38.1172C46.3594 39.2591 46.5856 40.4213 47.1604 41.4206C47.7352 42.4199 48.6261 43.1997 49.6927 43.6372C50.3639 43.8925 51.077 44.0198 51.7951 44.0124C52.129 44.0082 52.4623 43.9824 52.793 43.9352V47.4102C52.8259 53.3808 54.9219 59.1563 58.7259 63.7584C59.2563 64.4041 61.0096 66.1894 61.8274 66.9527C61.5729 67.0243 61.311 67.0665 61.0469 67.0786H58.0598C56.9014 64.8975 55.1728 63.0716 53.0584 61.7955C50.9439 60.5195 48.5229 59.841 46.0533 59.8325H39.8084C39.701 58.9843 39.2914 58.2032 38.6545 57.6328C38.0177 57.0623 37.1965 56.7407 36.3416 56.727H27.5238C26.669 56.7407 25.8478 57.0623 25.211 57.6326C24.5742 58.203 24.1645 58.9839 24.057 59.8321H16.5625C14.3041 59.8416 12.0833 60.4107 10.0987 61.4885C8.11407 62.5662 6.42748 64.1191 5.18976 66.0081C3.95203 67.8971 3.20176 70.0634 3.00603 72.3133C2.81031 74.5632 3.17523 76.8265 4.06816 78.9009L2.16347 91.7699C1.86897 93.7564 2.28238 95.7832 3.33137 97.4957C4.38036 99.2082 5.99812 100.497 7.90158 101.137C9.80505 101.777 11.873 101.728 13.7436 100.997C15.6141 100.267 17.1682 98.9013 18.1339 97.1405L25.3626 83.9384C26.2498 83.1782 27.0371 82.3086 27.7057 81.3505C28.0977 80.7862 28.6188 80.3239 29.2257 80.002C29.8326 79.6801 30.5077 79.508 31.1946 79.5H31.4563C32.1409 79.5074 32.8139 79.678 33.4194 79.9976C34.0248 80.3173 34.5453 80.7767 34.9376 81.3378C35.609 82.2936 36.4003 83.1592 37.2921 83.9135L43.4766 95.4518V100.441C43.4682 100.598 43.4922 100.756 43.5471 100.903C43.6019 101.051 43.6864 101.185 43.7954 101.299C43.9044 101.412 44.0355 101.502 44.1807 101.563C44.3258 101.624 44.4819 101.654 44.6392 101.652H102.688C102.849 101.656 103.009 101.627 103.16 101.568C103.31 101.509 103.447 101.42 103.563 101.307C103.678 101.195 103.77 101.06 103.833 100.911C103.896 100.763 103.929 100.603 103.93 100.441V78.3988C103.927 76.9072 103.629 75.4308 103.055 74.0542C102.481 72.6775 101.641 71.4277 100.583 70.3761C99.5247 69.3246 98.2697 68.4921 96.8896 67.9262C95.5095 67.3602 94.0313 67.0721 92.5397 67.0782ZM95.6484 36.982C95.6484 36.9626 95.7159 36.9433 95.737 36.9224C96.0766 36.5737 96.5273 36.3543 97.0113 36.3022C97.4952 36.2501 97.9822 36.3685 98.3883 36.6369C98.7885 36.9112 99.1067 37.2892 99.3086 37.7304C99.5106 38.1716 99.5887 38.6594 99.5348 39.1417C99.4808 39.6239 99.2967 40.0823 99.0022 40.468C98.7077 40.8536 98.3138 41.1519 97.8628 41.3309C97.1482 41.5787 96.3745 41.5995 95.6476 41.3905L95.6484 36.982ZM52.793 41.4046C52.0787 41.5954 51.3238 41.5698 50.6241 41.3309C50.1759 41.1487 49.7853 40.8488 49.4935 40.4629C49.2018 40.0771 49.0196 39.6195 48.9665 39.1387C48.9133 38.6578 48.991 38.1715 49.1914 37.7312C49.3917 37.2909 49.7074 36.9129 50.1049 36.6371C50.5105 36.3681 50.9974 36.2494 51.4814 36.3015C51.9653 36.3536 52.4158 36.5732 52.7549 36.9224C52.7646 36.9317 52.7938 36.94 52.7938 36.9491L52.793 41.4046ZM93.1641 31.0878L88.099 44.3546C87.8606 44.9813 87.4817 45.5451 86.9915 46.0026C86.5012 46.4601 85.9127 46.7992 85.271 46.9938C84.6294 47.1885 83.9516 47.2335 83.2898 47.1255C82.628 47.0175 81.9998 46.7593 81.4533 46.3707L81.3705 46.3086C79.2844 44.8324 76.793 44.0373 74.2374 44.0322C71.6819 44.0271 69.1873 44.8122 67.0953 46.28C66.5506 46.6644 65.9255 46.9198 65.2674 47.0268C64.6093 47.1338 63.9355 47.0895 63.297 46.8974C62.6586 46.7052 62.0722 46.3703 61.5825 45.9179C61.0927 45.4655 60.7124 44.9075 60.4703 44.2863L55.2773 31.034V30.493C56.9921 29.7063 58.5172 28.5594 59.7489 27.1304C60.9806 25.7014 61.8901 24.0238 62.4154 22.2118C64.8583 22.2064 67.9862 22.153 72.0326 22.153H72.0487C72.526 22.1636 72.9938 22.2883 73.4129 22.5167C73.8321 22.7451 74.1904 23.0706 74.458 23.466C75.9873 25.6701 78.0255 27.4731 80.3998 28.7221C82.7741 29.971 85.4145 30.6291 88.0972 30.6407H93.1641V31.0878ZM55.2773 27.682V22.2116C56.1055 22.2248 57.5501 22.2323 59.8016 22.2323C58.9471 24.5047 57.3537 26.424 55.2773 27.682ZM50.3086 14.2632V6.83206H76.7129C77.8711 6.83449 78.9984 7.20578 79.9314 7.89206C80.8643 8.57835 81.5544 9.54397 81.9016 10.6489C81.9701 11.0354 81.9351 12.6558 81.8585 13.9562C81.8488 14.1257 81.874 14.2953 81.9326 14.4546C81.9912 14.6139 82.0819 14.7595 82.199 14.8822C82.3162 15.005 82.4574 15.1024 82.6138 15.1684C82.7701 15.2344 82.9384 15.2675 83.1081 15.2657C85.5043 15.2468 88.1696 15.2373 88.5833 15.2576C89.8637 15.4548 91.0307 16.1056 91.8715 17.0912C92.7123 18.0768 93.171 19.3317 93.1641 20.6272V28.1563H88.0972C85.8146 28.1448 83.5685 27.5833 81.549 26.5194C79.5295 25.4555 77.7962 23.9205 76.496 22.0445C75.9996 21.3208 75.3364 20.7271 74.5624 20.3135C73.7884 19.8999 72.9263 19.6785 72.0487 19.668H72.0187C61.9286 19.668 55.1701 19.7432 54.2312 19.6899C51.9984 19.0301 50.3086 16.7261 50.3086 14.2632ZM60.6463 62.1819C57.2067 58.0245 55.3099 52.8059 55.2773 47.4102V37.8319L58.1571 45.195C58.5374 46.1663 59.1336 47.0384 59.9005 47.7454C60.6674 48.4525 61.5849 48.976 62.5839 49.2763C63.5828 49.5766 64.6369 49.6459 65.6666 49.479C66.6963 49.312 67.6745 48.9132 68.5273 48.3126C70.1991 47.1397 72.1925 46.5123 74.2347 46.5164C76.2768 46.5205 78.2677 47.1558 79.9348 48.3354L80.0207 48.3975C81.1801 49.2253 82.5688 49.6709 83.9934 49.6722C84.6739 49.6715 85.3505 49.5707 86.0016 49.373C87.0057 49.0712 87.9265 48.5417 88.6924 47.8257C89.4583 47.1097 90.0485 46.2265 90.4172 45.2451L93.1641 38.0265V47.304C93.1375 52.7006 91.2448 57.9219 87.8071 62.0821C87.2265 62.7936 86.6057 63.4715 85.9478 64.1122C85.6437 64.4083 82.5732 67.0156 80.7088 68.5866L74.3358 73.9207L67.7388 68.7294L63.7147 65.3095C63.2772 64.9381 61.1647 62.8133 60.6463 62.1819ZM81.1562 71.4639V71.5053C81.1572 72.9975 80.625 74.4409 79.6557 75.5753C78.6864 76.7098 77.3437 77.4607 75.8697 77.6926C74.4205 77.9067 72.9478 77.9067 71.4986 77.6926C68.4878 77.2527 66.25 74.5921 66.25 71.5047V70.6902L73.6122 76.4964C73.8278 76.6688 74.0956 76.7625 74.3716 76.7622C74.6631 76.7623 74.9454 76.6597 75.1687 76.4724L81.1562 71.4639ZM27.5238 59.211H36.3416C36.7671 59.211 37.1284 59.625 37.2733 59.8321H26.5919C26.7366 59.625 27.0985 59.211 27.5238 59.211ZM15.9544 95.9485C15.27 97.1985 14.1677 98.1679 12.8405 98.6871C11.5133 99.2064 10.0457 99.2423 8.69472 98.7885C7.34372 98.3348 6.19534 97.4204 5.45058 96.2053C4.70582 94.9902 4.41214 93.552 4.62093 92.1422L6.09086 82.2227C7.36623 83.7623 8.96546 85.0017 10.7746 85.8525C12.5838 86.7033 14.5583 87.1447 16.5575 87.1451C18.1481 87.1447 19.7266 86.8681 21.2226 86.3275L15.9544 95.9485ZM36.9665 79.9215C36.3455 79.0339 35.5217 78.3071 34.5635 77.8017C33.6054 77.2963 32.5404 77.0268 31.4572 77.0156H31.1926C30.1079 77.0238 29.0409 77.2916 28.0809 77.7968C27.121 78.302 26.2961 79.0298 25.6752 79.9193C24.568 81.4757 23.0793 82.7214 21.3521 83.5368C19.6248 84.3522 17.717 84.71 15.8116 84.5757C13.9063 84.4415 12.0675 83.8198 10.4716 82.7702C8.87577 81.7206 7.57649 80.2785 6.69848 78.5822C5.82048 76.8859 5.39323 74.9924 5.45775 73.0835C5.52226 71.1745 6.07638 69.3141 7.06691 67.681C8.05744 66.0479 9.45113 64.6967 11.1142 63.7573C12.7773 62.8179 14.6539 62.3217 16.5639 62.3164H46.0533C47.5214 62.3165 48.9752 62.6058 50.3315 63.1677C51.6879 63.7296 52.9202 64.5531 53.9583 65.5913C54.9964 66.6295 55.8198 67.862 56.3816 69.2184C56.9433 70.5748 57.2324 72.0286 57.2323 73.4967C57.2323 74.9649 56.943 76.4186 56.3811 77.775C55.8192 79.1313 54.9956 80.3637 53.9574 81.4018C52.9193 82.4399 51.6868 83.2633 50.3304 83.825C48.9739 84.3868 47.5202 84.6759 46.052 84.6758H46.0437C44.2612 84.6646 42.5072 84.2273 40.9282 83.4002C39.3491 82.5732 37.9907 81.3804 36.9665 79.9215ZM53.7153 98.9307C53.3241 99.0505 52.9218 99.13 52.5145 99.168H51.3651C50.3788 99.0748 49.4302 98.7422 48.6016 98.1991C47.7731 97.656 47.0897 96.9188 46.6108 96.0516L41.3789 86.3149C42.8723 86.8678 44.4513 87.1539 46.0437 87.1602H46.0541C47.8509 87.1599 49.6296 86.8016 51.2864 86.1064C52.9432 85.4112 54.445 84.393 55.704 83.1111C56.0119 82.8005 56.3019 82.4693 56.5763 82.1362L58.0126 91.8283C58.3828 95.1238 56.6175 98.0401 53.7157 98.9307H53.7153ZM101.445 99.168H92.543V91.7894C95.9867 91.1475 99.1189 89.3775 101.445 86.7585V99.168ZM101.445 82.4784C100.521 84.1698 99.2505 85.6473 97.7165 86.8143C96.1826 87.9814 94.4197 88.8117 92.543 89.2512V88.3682C92.543 88.0388 92.4121 87.7228 92.1791 87.4898C91.9462 87.2569 91.6302 87.126 91.3008 87.126C90.9713 87.126 90.6554 87.2569 90.4224 87.4898C90.1895 87.7228 90.0586 88.0388 90.0586 88.3682V99.168H57.9779C59.8507 97.273 60.8202 94.5046 60.4778 91.5211C60.4761 91.5076 60.4747 91.4942 60.4726 91.4807L58.5942 78.8C59.8292 75.8722 60.0034 72.6051 59.0867 69.5625H61.0469C61.9993 69.5363 62.9315 69.2823 63.7656 68.8218V71.5047C63.7656 75.8163 66.9144 79.5336 71.1359 80.1513C72.8273 80.4002 74.546 80.4002 76.2374 80.1513C80.46 79.5338 83.6406 75.8171 83.6406 71.5047V69.3762C83.7847 69.2971 83.9158 69.1964 84.0294 69.0777C84.7403 69.3856 85.505 69.5504 86.2797 69.5625H92.5397C93.7051 69.5561 94.8604 69.7798 95.9393 70.2207C97.0181 70.6616 97.9994 71.3112 98.8267 72.1321C99.6541 72.953 100.311 73.9291 100.761 75.0045C101.21 76.0798 101.443 77.2333 101.445 78.3988V82.4784Z" fill="url(#paint0_linear)"/>
<path d="M81.6531 32.2762C80.5295 32.2774 79.4522 32.7244 78.6577 33.5189C77.8632 34.3134 77.4164 35.3907 77.4152 36.5143C77.4152 36.8438 77.546 37.1597 77.779 37.3927C78.0119 37.6256 78.3279 37.7565 78.6573 37.7565C78.9868 37.7565 79.3028 37.6256 79.5357 37.3927C79.7687 37.1597 79.8995 36.8438 79.8995 36.5143C79.8995 36.0493 80.0843 35.6032 80.4131 35.2744C80.742 34.9455 81.188 34.7608 81.6531 34.7608C82.1182 34.7608 82.5642 34.9455 82.893 35.2744C83.2219 35.6032 83.4066 36.0493 83.4066 36.5143C83.4066 36.8438 83.5375 37.1597 83.7705 37.3927C84.0034 37.6256 84.3194 37.7565 84.6488 37.7565C84.9783 37.7565 85.2942 37.6256 85.5272 37.3927C85.7601 37.1597 85.891 36.8438 85.891 36.5143C85.8898 35.3907 85.4429 34.3135 84.6484 33.519C83.8539 32.7244 82.7767 32.2775 81.6531 32.2762Z" fill="url(#paint1_linear)"/>
<path d="M65.6747 32.2762C64.5511 32.2778 63.4741 32.7248 62.6796 33.5193C61.8851 34.3137 61.4381 35.3908 61.4365 36.5143C61.4365 36.8438 61.5674 37.1597 61.8004 37.3927C62.0333 37.6256 62.3493 37.7565 62.6787 37.7565C63.0082 37.7565 63.3241 37.6256 63.5571 37.3927C63.79 37.1597 63.9209 36.8438 63.9209 36.5143C63.9209 36.0493 64.1056 35.6032 64.4345 35.2744C64.7634 34.9455 65.2094 34.7608 65.6745 34.7608C66.1395 34.7608 66.5855 34.9455 66.9144 35.2744C67.2433 35.6032 67.428 36.0493 67.428 36.5143C67.428 36.8438 67.5589 37.1597 67.7918 37.3927C68.0248 37.6256 68.3407 37.7565 68.6702 37.7565C68.9996 37.7565 69.3156 37.6256 69.5486 37.3927C69.7815 37.1597 69.9124 36.8438 69.9124 36.5143C69.9112 35.3907 69.4643 34.3135 68.6699 33.519C67.8754 32.7245 66.7982 32.2775 65.6747 32.2762Z" fill="url(#paint2_linear)"/>
<path d="M71.18 55.9417C71.4098 55.9606 71.6384 55.97 71.8657 55.9699C73.3822 55.9705 74.8697 55.5551 76.1665 54.7691C77.4633 53.983 78.5197 52.8563 79.2207 51.5117C79.2994 51.3669 79.3484 51.2079 79.3651 51.0439C79.3817 50.88 79.3655 50.7144 79.3175 50.5568C79.2695 50.3992 79.1906 50.2526 79.0855 50.1258C78.9803 49.9989 78.8509 49.8943 78.7049 49.8179C78.5589 49.7416 78.3992 49.695 78.235 49.681C78.0708 49.6669 77.9055 49.6857 77.7486 49.7362C77.5918 49.7867 77.4466 49.8679 77.3214 49.975C77.1962 50.0822 77.0936 50.2132 77.0196 50.3604C76.4898 51.3751 75.6724 52.211 74.6698 52.7634C73.6672 53.3158 72.5239 53.5601 71.3831 53.4658C71.2205 53.4525 71.0569 53.4713 70.9016 53.5212C70.7463 53.5711 70.6023 53.6511 70.478 53.7566C70.3536 53.8622 70.2512 53.9912 70.1766 54.1363C70.1021 54.2814 70.0569 54.4397 70.0435 54.6023C70.0302 54.7649 70.049 54.9285 70.0989 55.0838C70.1488 55.2391 70.2288 55.3831 70.3343 55.5075C70.4399 55.6319 70.5689 55.7343 70.714 55.8088C70.8591 55.8834 71.0174 55.9286 71.18 55.9419V55.9417Z" fill="url(#paint3_linear)"/>
<path d="M86.5391 76.3945C86.2096 76.3945 85.8937 76.5254 85.6607 76.7584C85.4277 76.9913 85.2969 77.3073 85.2969 77.6367V78.6719C85.2969 79.0013 85.4277 79.3173 85.6607 79.5502C85.8937 79.7832 86.2096 79.9141 86.5391 79.9141C86.8685 79.9141 87.1845 79.7832 87.4174 79.5502C87.6504 79.3173 87.7812 79.0013 87.7812 78.6719V77.6367C87.7812 77.3073 87.6504 76.9913 87.4174 76.7584C87.1845 76.5254 86.8685 76.3945 86.5391 76.3945Z" fill="url(#paint4_linear)"/>
<path d="M86.5391 81.3633C86.2096 81.3633 85.8937 81.4942 85.6607 81.7271C85.4277 81.9601 85.2969 82.276 85.2969 82.6055V94.4062C85.2969 94.7357 85.4277 95.0517 85.6607 95.2846C85.8937 95.5176 86.2096 95.6484 86.5391 95.6484C86.8685 95.6484 87.1845 95.5176 87.4174 95.2846C87.6504 95.0517 87.7812 94.7357 87.7812 94.4062V82.6055C87.7812 82.276 87.6504 81.9601 87.4174 81.7271C87.1845 81.4942 86.8685 81.3633 86.5391 81.3633Z" fill="url(#paint5_linear)"/>
<path d="M34.8363 63.9727H29.0293C28.2606 63.9727 27.5234 64.278 26.9798 64.8216C26.4362 65.3651 26.1309 66.1024 26.1309 66.8711C26.1309 67.6398 26.4362 68.377 26.9798 68.9206C27.5234 69.4642 28.2606 69.7695 29.0293 69.7695H34.8363C35.605 69.7695 36.3423 69.4642 36.8858 68.9206C37.4294 68.377 37.7348 67.6398 37.7348 66.8711C37.7348 66.1024 37.4294 65.3651 36.8858 64.8216C36.3423 64.278 35.605 63.9727 34.8363 63.9727ZM34.8363 67.2852H29.0293C28.925 67.2771 28.8276 67.2299 28.7566 67.1532C28.6855 67.0764 28.6461 66.9757 28.6461 66.8711C28.6461 66.7665 28.6855 66.6658 28.7566 66.589C28.8276 66.5122 28.925 66.4651 29.0293 66.457H34.8363C34.9406 66.4651 35.038 66.5122 35.109 66.589C35.1801 66.6658 35.2195 66.7665 35.2195 66.8711C35.2195 66.9757 35.1801 67.0764 35.109 67.1532C35.038 67.2299 34.9406 67.2771 34.8363 67.2852Z" fill="url(#paint6_linear)"/>
<path d="M47.9509 73.5245C47.9509 74.1251 48.1289 74.7122 48.4626 75.2115C48.7962 75.7109 49.2704 76.1002 49.8253 76.33C50.3801 76.5599 50.9907 76.62 51.5797 76.5029C52.1688 76.3857 52.7098 76.0966 53.1345 75.6719C53.5592 75.2472 53.8484 74.7062 53.9656 74.1172C54.0828 73.5281 54.0227 72.9176 53.7929 72.3627C53.563 71.8078 53.1738 71.3336 52.6745 70.9999C52.1751 70.6663 51.588 70.4882 50.9875 70.4882C50.1824 70.489 49.4106 70.8092 48.8413 71.3784C48.2721 71.9477 47.9519 72.7194 47.9509 73.5245ZM50.9875 72.9725C51.0967 72.9725 51.2034 73.0049 51.2942 73.0656C51.385 73.1263 51.4558 73.2125 51.4976 73.3134C51.5394 73.4143 51.5503 73.5254 51.529 73.6325C51.5077 73.7396 51.4551 73.838 51.3778 73.9152C51.3006 73.9924 51.2022 74.045 51.095 74.0663C50.9879 74.0875 50.8769 74.0766 50.776 74.0347C50.6751 73.9929 50.5889 73.9221 50.5283 73.8313C50.4676 73.7405 50.4353 73.6337 50.4353 73.5245C50.4355 73.3781 50.4937 73.2378 50.5972 73.1343C50.7007 73.0308 50.8411 72.9726 50.9875 72.9725Z" fill="url(#paint7_linear)"/>
<path d="M44.1554 73.5245C44.1556 72.9239 43.9776 72.3367 43.644 71.8372C43.3105 71.3378 42.8363 70.9485 42.2815 70.7185C41.7266 70.4885 41.1161 70.4283 40.527 70.5454C39.9379 70.6624 39.3968 70.9516 38.972 71.3762C38.5473 71.8008 38.258 72.3419 38.1407 72.9309C38.0235 73.52 38.0836 74.1306 38.3134 74.6855C38.5432 75.2404 38.9324 75.7147 39.4318 76.0484C39.9311 76.3821 40.5183 76.5602 41.1189 76.5602C41.9238 76.5593 42.6955 76.2392 43.2648 75.6701C43.834 75.101 44.1543 74.3294 44.1554 73.5245ZM41.1189 74.0758C41.0097 74.0758 40.9029 74.0434 40.8121 73.9827C40.7213 73.9221 40.6505 73.8358 40.6087 73.7349C40.567 73.6341 40.556 73.523 40.5773 73.4159C40.5986 73.3088 40.6512 73.2104 40.7284 73.1332C40.8057 73.056 40.904 73.0034 41.0111 72.9821C41.1183 72.9608 41.2293 72.9717 41.3302 73.0135C41.4311 73.0553 41.5173 73.1261 41.578 73.2169C41.6386 73.3077 41.671 73.4144 41.671 73.5236C41.6708 73.67 41.6126 73.8103 41.5091 73.9138C41.4056 74.0173 41.2652 74.0756 41.1189 74.0758Z" fill="url(#paint8_linear)"/>
<path d="M49.0896 78.4589C49.0896 77.8583 48.9116 77.2712 48.5779 76.7718C48.2443 76.2724 47.7701 75.8832 47.2152 75.6533C46.6603 75.4234 46.0498 75.3633 45.4607 75.4805C44.8717 75.5976 44.3306 75.8868 43.9059 76.3115C43.4812 76.7362 43.192 77.2773 43.0749 77.8663C42.9577 78.4553 43.0179 79.0659 43.2477 79.6208C43.4776 80.1756 43.8668 80.6499 44.3662 80.9835C44.8656 81.3172 45.4527 81.4952 46.0533 81.4952C46.8583 81.4942 47.63 81.174 48.1993 80.6048C48.7685 80.0356 49.0887 79.2639 49.0896 78.4589ZM45.5011 78.4589C45.5011 78.3496 45.5334 78.2429 45.5941 78.152C45.6547 78.0612 45.7409 77.9904 45.8418 77.9486C45.9427 77.9068 46.0538 77.8958 46.1609 77.9171C46.268 77.9384 46.3664 77.9909 46.4436 78.0681C46.5209 78.1454 46.5735 78.2437 46.5948 78.3509C46.6161 78.458 46.6052 78.569 46.5634 78.6699C46.5216 78.7708 46.4509 78.8571 46.3601 78.9177C46.2693 78.9784 46.1625 79.0108 46.0533 79.0108C45.9069 79.0106 45.7666 78.9524 45.6631 78.849C45.5596 78.7455 45.5013 78.6052 45.5011 78.4589Z" fill="url(#paint9_linear)"/>
<path d="M46.0532 71.6268C46.6538 71.6268 47.2408 71.4488 47.7402 71.1151C48.2395 70.7815 48.6287 70.3073 48.8586 69.7525C49.0884 69.1977 49.1486 68.5872 49.0315 67.9982C48.9144 67.4092 48.6253 66.8681 48.2007 66.4434C47.7761 66.0187 47.2351 65.7295 46.6462 65.6122C46.0572 65.495 45.4467 65.555 44.8918 65.7847C44.3369 66.0144 43.8626 66.4034 43.5289 66.9027C43.1951 67.4019 43.0169 67.9889 43.0167 68.5895C43.0174 69.3947 43.3375 70.1667 43.9068 70.7362C44.4761 71.3056 45.248 71.626 46.0532 71.6268ZM46.0532 68.0381C46.1625 68.0381 46.2692 68.0705 46.36 68.1312C46.4508 68.1919 46.5216 68.2781 46.5634 68.379C46.6052 68.4799 46.6161 68.5909 46.5948 68.698C46.5735 68.8051 46.5209 68.9035 46.4437 68.9807C46.3665 69.0579 46.2681 69.1105 46.161 69.1318C46.0539 69.1532 45.9428 69.1422 45.842 69.1004C45.7411 69.0586 45.6548 68.9879 45.5942 68.8971C45.5335 68.8063 45.5011 68.6995 45.5011 68.5903C45.5012 68.4439 45.5594 68.3035 45.6629 68.2C45.7665 68.0965 45.9068 68.0383 46.0532 68.0381Z" fill="url(#paint10_linear)"/>
<path d="M21.7215 70.5977H19.6679V68.4507C19.6679 67.7646 19.0261 67.2852 18.3407 67.2852H14.9549C14.269 67.2852 13.664 67.7646 13.664 68.4507V70.5977H11.573C11.4114 70.5973 11.2514 70.629 11.1022 70.691C10.953 70.7531 10.8176 70.8442 10.7039 70.959C10.5903 71.0739 10.5006 71.2102 10.4401 71.36C10.3796 71.5098 10.3495 71.6702 10.3515 71.8318V75.2174C10.3506 75.376 10.382 75.5331 10.4436 75.6793C10.5052 75.8254 10.5959 75.9575 10.7101 76.0676C10.8243 76.1777 10.9597 76.2634 11.108 76.3196C11.2564 76.3758 11.4146 76.4013 11.573 76.3945H13.664V78.5984C13.6723 78.9405 13.8103 79.2668 14.05 79.511C14.2898 79.7553 14.6134 79.8994 14.9553 79.9141H18.3409C18.6866 79.9007 19.0148 79.7581 19.2605 79.5145C19.5062 79.2709 19.6516 78.944 19.6679 78.5984V76.3945H21.7215C21.882 76.402 22.0423 76.3773 22.1931 76.3218C22.3438 76.2664 22.482 76.1813 22.5993 76.0715C22.7167 75.9618 22.8108 75.8297 22.8763 75.683C22.9418 75.5363 22.9772 75.378 22.9804 75.2174V71.8318C22.9763 71.5014 22.8415 71.1862 22.6056 70.9549C22.3697 70.7237 22.0518 70.5952 21.7215 70.5977ZM20.4961 73.9102H18.3409C17.6548 73.9102 17.1836 74.5312 17.1836 75.2174V77.4297H16.1484V75.2174C16.1484 74.5312 15.6414 73.9102 14.9553 73.9102H12.8359V73.082H14.9549C15.1159 73.0801 15.2749 73.046 15.4225 72.9818C15.5702 72.9176 15.7035 72.8245 15.8147 72.7081C15.9259 72.5916 16.0127 72.4541 16.07 72.3036C16.1273 72.1531 16.154 71.9927 16.1484 71.8318V69.7695H17.1836V71.8318C17.1836 72.5177 17.6546 73.082 18.3407 73.082H20.4961V73.9102Z" fill="url(#paint11_linear)"/>
<path d="M27.4917 52.3421C27.3761 52.4572 27.2844 52.594 27.2217 52.7446C27.159 52.8952 27.1266 53.0567 27.1263 53.2198C27.1261 53.3829 27.1579 53.5445 27.2201 53.6953C27.2823 53.8462 27.3735 53.9833 27.4887 54.0988C27.6038 54.2144 27.7406 54.3061 27.8912 54.3688C28.0418 54.4315 28.2033 54.4639 28.3664 54.4642C28.5296 54.4644 28.6912 54.4326 28.842 54.3704C28.9928 54.3082 29.1299 54.217 29.2454 54.1018C29.793 53.5557 30.5348 53.249 31.3082 53.249C32.0816 53.249 32.8234 53.5557 33.371 54.1018C33.4865 54.217 33.6236 54.3083 33.7744 54.3704C33.9253 54.4326 34.0869 54.4645 34.25 54.4642C34.4131 54.464 34.5746 54.4316 34.7252 54.3689C34.8759 54.3062 35.0127 54.2145 35.1278 54.0989C35.243 53.9834 35.3343 53.8463 35.3965 53.6954C35.4586 53.5446 35.4905 53.383 35.4902 53.2199C35.49 53.0567 35.4576 52.8953 35.3949 52.7446C35.3322 52.594 35.2405 52.4572 35.1249 52.3421C34.1117 51.3317 32.7392 50.7644 31.3083 50.7644C29.8774 50.7644 28.5049 51.3317 27.4917 52.3421Z" fill="url(#paint12_linear)"/>
<path d="M37.1953 51.5168C37.441 51.5168 37.6812 51.4439 37.8855 51.3073C38.0898 51.1708 38.249 50.9767 38.343 50.7496C38.437 50.5226 38.4615 50.2727 38.4134 50.0318C38.3654 49.7908 38.247 49.5694 38.0731 49.3958C36.2779 47.6037 33.845 46.5971 31.3084 46.5971C28.7717 46.5971 26.3388 47.6037 24.5436 49.3958C24.3105 49.6286 24.1794 49.9445 24.1792 50.2739C24.179 50.6034 24.3097 50.9194 24.5425 51.1525C24.7753 51.3856 25.0912 51.5167 25.4206 51.5169C25.7501 51.5172 26.0661 51.3865 26.2992 51.1537C27.6286 49.8267 29.4301 49.0815 31.3084 49.0815C33.1866 49.0815 34.9881 49.8267 36.3175 51.1537C36.4327 51.269 36.5696 51.3604 36.7202 51.4227C36.8708 51.485 37.0323 51.517 37.1953 51.5168Z" fill="url(#paint13_linear)"/>
<path d="M22.4751 48.5706C22.6382 48.5708 22.7997 48.5388 22.9504 48.4764C23.1011 48.414 23.238 48.3225 23.3531 48.207C25.4637 46.0984 28.325 44.914 31.3083 44.914C34.2917 44.914 37.153 46.0984 39.2635 48.207C39.4965 48.4399 39.8125 48.5707 40.142 48.5706C40.3051 48.5705 40.4666 48.5384 40.6173 48.4759C40.768 48.4134 40.9049 48.3219 41.0203 48.2065C41.1356 48.0911 41.227 47.9541 41.2894 47.8034C41.3518 47.6527 41.3839 47.4911 41.3838 47.328C41.3838 47.1649 41.3516 47.0034 41.2891 46.8527C41.2267 46.702 41.1351 46.5651 41.0197 46.4497C38.4433 43.8756 34.9503 42.4296 31.3083 42.4296C27.6663 42.4296 24.1733 43.8756 21.5969 46.4497C21.4231 46.6234 21.3047 46.8448 21.2567 47.0858C21.2087 47.3268 21.2333 47.5766 21.3273 47.8036C21.4213 48.0307 21.5805 48.2247 21.7849 48.3612C21.9892 48.4977 22.2294 48.5706 22.4751 48.5706Z" fill="url(#paint14_linear)"/>
<defs>
<linearGradient id="paint0_linear" x1="52.9988" y1="95.1837" x2="52.9988" y2="15.4771" gradientUnits="userSpaceOnUse">
<stop offset="0.322" stop-color="#A163F5"/>
<stop offset="0.466" stop-color="#B074EE"/>
<stop offset="0.752" stop-color="#D8A1DD"/>
<stop offset="0.898" stop-color="#EFBAD3"/>
</linearGradient>
<linearGradient id="paint1_linear" x1="3420.25" y1="2551.88" x2="3420.25" y2="441.969" gradientUnits="userSpaceOnUse">
<stop offset="0.322" stop-color="#A163F5"/>
<stop offset="0.466" stop-color="#B074EE"/>
<stop offset="0.752" stop-color="#D8A1DD"/>
<stop offset="0.898" stop-color="#EFBAD3"/>
</linearGradient>
<linearGradient id="paint2_linear" x1="2750.15" y1="2551.88" x2="2750.15" y2="441.969" gradientUnits="userSpaceOnUse">
<stop offset="0.322" stop-color="#A163F5"/>
<stop offset="0.466" stop-color="#B074EE"/>
<stop offset="0.752" stop-color="#D8A1DD"/>
<stop offset="0.898" stop-color="#EFBAD3"/>
</linearGradient>
<linearGradient id="paint3_linear" x1="3437.22" y1="2943.11" x2="3437.22" y2="520.154" gradientUnits="userSpaceOnUse">
<stop offset="0.322" stop-color="#A163F5"/>
<stop offset="0.466" stop-color="#B074EE"/>
<stop offset="0.752" stop-color="#D8A1DD"/>
<stop offset="0.898" stop-color="#EFBAD3"/>
</linearGradient>
<linearGradient id="paint4_linear" x1="1123.77" y1="1694.52" x2="1123.77" y2="339.504" gradientUnits="userSpaceOnUse">
<stop offset="0.322" stop-color="#A163F5"/>
<stop offset="0.466" stop-color="#B074EE"/>
<stop offset="0.752" stop-color="#D8A1DD"/>
<stop offset="0.898" stop-color="#EFBAD3"/>
</linearGradient>
<linearGradient id="paint5_linear" x1="1123.77" y1="6649.04" x2="1123.77" y2="1149.28" gradientUnits="userSpaceOnUse">
<stop offset="0.322" stop-color="#A163F5"/>
<stop offset="0.466" stop-color="#B074EE"/>
<stop offset="0.752" stop-color="#D8A1DD"/>
<stop offset="0.898" stop-color="#EFBAD3"/>
</linearGradient>
<linearGradient id="paint6_linear" x1="1815.93" y1="2729.11" x2="1815.93" y2="497.33" gradientUnits="userSpaceOnUse">
<stop offset="0.322" stop-color="#A163F5"/>
<stop offset="0.466" stop-color="#B074EE"/>
<stop offset="0.752" stop-color="#D8A1DD"/>
<stop offset="0.898" stop-color="#EFBAD3"/>
</linearGradient>
<linearGradient id="paint7_linear" x1="1543.62" y1="2862.6" x2="1543.62" y2="524.491" gradientUnits="userSpaceOnUse">
<stop offset="0.322" stop-color="#A163F5"/>
<stop offset="0.466" stop-color="#B074EE"/>
<stop offset="0.752" stop-color="#D8A1DD"/>
<stop offset="0.898" stop-color="#EFBAD3"/>
</linearGradient>
<linearGradient id="paint8_linear" x1="1244.27" y1="2862.6" x2="1244.27" y2="524.49" gradientUnits="userSpaceOnUse">
<stop offset="0.322" stop-color="#A163F5"/>
<stop offset="0.466" stop-color="#B074EE"/>
<stop offset="0.752" stop-color="#D8A1DD"/>
<stop offset="0.898" stop-color="#EFBAD3"/>
</linearGradient>
<linearGradient id="paint9_linear" x1="1393.94" y1="2867.54" x2="1393.94" y2="529.425" gradientUnits="userSpaceOnUse">
<stop offset="0.322" stop-color="#A163F5"/>
<stop offset="0.466" stop-color="#B074EE"/>
<stop offset="0.752" stop-color="#D8A1DD"/>
<stop offset="0.898" stop-color="#EFBAD3"/>
</linearGradient>
<linearGradient id="paint10_linear" x1="1393.94" y1="2857.67" x2="1393.94" y2="519.557" gradientUnits="userSpaceOnUse">
<stop offset="0.322" stop-color="#A163F5"/>
<stop offset="0.466" stop-color="#B074EE"/>
<stop offset="0.752" stop-color="#D8A1DD"/>
<stop offset="0.898" stop-color="#EFBAD3"/>
</linearGradient>
<linearGradient id="paint11_linear" x1="1026.99" y1="5873.49" x2="1026.99" y2="1011.38" gradientUnits="userSpaceOnUse">
<stop offset="0.322" stop-color="#A163F5"/>
<stop offset="0.466" stop-color="#B074EE"/>
<stop offset="0.752" stop-color="#D8A1DD"/>
<stop offset="0.898" stop-color="#EFBAD3"/>
</linearGradient>
<linearGradient id="paint12_linear" x1="1291.96" y1="1751.78" x2="1291.96" y2="327.352" gradientUnits="userSpaceOnUse">
<stop offset="0.322" stop-color="#A163F5"/>
<stop offset="0.466" stop-color="#B074EE"/>
<stop offset="0.752" stop-color="#D8A1DD"/>
<stop offset="0.898" stop-color="#EFBAD3"/>
</linearGradient>
<linearGradient id="paint13_linear" x1="2180.38" y1="2308.51" x2="2180.38" y2="414.389" gradientUnits="userSpaceOnUse">
<stop offset="0.322" stop-color="#A163F5"/>
<stop offset="0.466" stop-color="#B074EE"/>
<stop offset="0.752" stop-color="#D8A1DD"/>
<stop offset="0.898" stop-color="#EFBAD3"/>
</linearGradient>
<linearGradient id="paint14_linear" x1="3068.58" y1="2865.77" x2="3068.58" y2="501.51" gradientUnits="userSpaceOnUse">
<stop offset="0.322" stop-color="#A163F5"/>
<stop offset="0.466" stop-color="#B074EE"/>
<stop offset="0.752" stop-color="#D8A1DD"/>
<stop offset="0.898" stop-color="#EFBAD3"/>
</linearGradient>
</defs>
</svg>
