<svg width="140" height="105" viewBox="0 0 140 105" fill="none" xmlns="http://www.w3.org/2000/svg"><path d="M46.974 61.6c8.383 9.437 20.513 17.613 33.323 17.756 3.336-9.303 3.505-20.425 2.632-29.46-1.466-15.18-12.747-34.581-31.084-30.466-20.656 4.635-15.034 30.73-4.871 42.17zm29.594-37.49c12.023 12.218 14.696 36.678 8.239 54.959a29.187 29.187 0 003.556-.705c30.332-8.209 34.514-43.965 35.525-70.014.013-.317.097-.591.213-.842l-.372-.513c-1.524 4.894-3.633 9.374-6.546 13.838-1.45 2.224-5.138.254-3.68-1.981 3.511-5.38 5.858-10.807 7.326-17.08.44-1.877 2.774-1.958 3.81-.576a207.331 207.331 0 0114.982 22.98c1.318 2.344-2.023 4.332-3.558 2.142-2.768-3.945-5.536-7.893-8.303-11.841-1.498 25.648-6.91 54.653-33.048 65.997-3.694 1.604-7.59 2.458-11.558 2.68-2.446 5.365-5.77 10-9.983 13.336-25.694 20.353-58.377.46-72.166-23.768-1.034-1.815 1.63-3.427 2.78-1.674C18.117 92.942 51.297 114.81 74.1 90.01c1.867-2.03 3.374-4.36 4.607-6.88-20.746-1.26-42.01-18.791-45.03-38.912-3.894-25.934 24.998-38.296 42.89-20.11z" fill="#8DD9E5"/><path d="M46.974 61.6c8.383 9.437 20.513 17.613 33.323 17.756 3.336-9.303 3.505-20.425 2.632-29.46-1.466-15.18-12.747-34.581-31.084-30.466-20.656 4.635-15.034 30.73-4.871 42.17zm29.594-37.49c12.023 12.218 14.696 36.678 8.239 54.959a29.187 29.187 0 003.556-.705c30.332-8.209 34.514-43.965 35.525-70.014.013-.317.097-.591.213-.842l-.372-.513c-1.524 4.894-3.633 9.374-6.546 13.838-1.45 2.224-5.138.254-3.68-1.981 3.511-5.38 5.858-10.807 7.326-17.08.44-1.877 2.774-1.958 3.81-.576a207.331 207.331 0 0114.982 22.98c1.318 2.344-2.023 4.332-3.558 2.142-2.768-3.945-5.536-7.893-8.303-11.841-1.498 25.648-6.91 54.653-33.048 65.997-3.694 1.604-7.59 2.458-11.558 2.68-2.446 5.365-5.77 10-9.983 13.336-25.694 20.353-58.377.46-72.166-23.768-1.034-1.815 1.63-3.427 2.78-1.674C18.117 92.942 51.297 114.81 74.1 90.01c1.867-2.03 3.374-4.36 4.607-6.88-20.746-1.26-42.01-18.791-45.03-38.912-3.894-25.934 24.998-38.296 42.89-20.11z" fill="#5879E8"/></svg>